# xmcd CD database file
#
# Track frame offsets:
#	150
#	15405
#	33767
#	55296
#	74887
#	91598
#	106324
#	121353
#	137510
#
# Disc length: 2040 seconds
#
# Revision: 0
# Processed by: cddbd v1.5.2PL0 Copyright (c) Steve Scherf et al.
# Submitted via: CDex 1.51
#
DISCID=6f07f609
DTITLE=Mia Vermillion - Alone Together With the Blues
DYEAR=2009
DGENRE=Blues
TTITLE0=Little Bit of Love
TTITLE1=In The Dark
TTITLE2=Love's Lost and Found
TTITLE3=In The Evening
TTITLE4=When I've Been Drinkin'
TTITLE5=I'm Going To Copyright Your Kisses
TTITLE6=I Wonder
TTITLE7=Walkin'
TTITLE8=Two Cigarettes In The Dark
EXTD=YEAR: 2009
EXTT0=
EXTT1=
EXTT2=
EXTT3=
EXTT4=
EXTT5=
EXTT6=
EXTT7=
EXTT8=
PLAYORDER=
